<?xml version="1.0" encoding="UTF-8"?><svg id="Layer_2" xmlns="http://www.w3.org/2000/svg" viewBox="0 0 200 200"><defs><style>.cls-1{fill:#f7941d;}.cls-2{fill:#006838;}</style></defs><g id="Layer_1-2"><rect class="cls-2" width="200" height="200" rx="36" ry="36"/><path class="cls-1" d="m69.48,29.29v55.66c-7.21,4.24-14.68,9.71-17.27,17.8,6.08,1.2,12.21,1.57,17.27,4.7,0,0,0,63.26,0,63.26h-19.67V29.29h19.67Z"/><path class="cls-1" d="m150.19,170.61h-17.92v-40.94c-.38-6.97-1.48-13.54-4.05-19.07-10.36-17.16-37-22.59-54.06-13.39,16.45-3.35,45.6,1.12,49.57,19.01-9.5,7.47-22.46,8.03-32.73,1.74-11.45-6.42-21.63-16.38-35.4-17.09,17.43-25.32,60.91-28.81,82.58-7.06,9.29,10.07,11.66,22.67,11.97,35.86.03,1.13.04,40.94.04,40.94Z"/></g></svg>